<svg width="37" height="37" viewBox="0 0 37 37" fill="none" xmlns="http://www.w3.org/2000/svg">
<path d="M17.7774 0.558197C10.9693 0.558197 9.56 4.0738 9.56 6.1098V9.9495H17.3861V10.7321H5.7203C3.1371 10.7321 0.168701 12.7681 0.168701 18.5582C0.168701 24.3482 3.1371 26.3843 5.7203 26.3843H10.3426V21.6886C10.3426 19.9675 11.7519 18.5582 13.473 18.5582H22.8644C24.1942 18.5582 25.2122 17.5402 25.2122 16.2103V6.1098C25.2122 3.3707 22.629 0.558197 17.7774 0.558197ZM14.2557 4.4712C15.1177 4.4712 15.8209 5.1743 15.8209 6.0364C15.8209 6.8985 15.1177 7.6016 14.2557 7.6016C13.3936 7.6016 12.6904 6.8985 12.6904 6.0364C12.6904 5.1743 13.3936 4.4712 14.2557 4.4712ZM25.9948 10.7321V16.2103C25.9948 17.9315 24.5855 19.3408 22.8644 19.3408H13.473C12.1432 19.3408 11.1252 20.3588 11.1252 21.6886V31.0065C11.1252 33.7457 13.7084 36.5582 18.56 36.5582C25.3681 36.5582 26.7774 33.0425 26.7774 31.0065V27.1669H18.9513V26.3843H30.6171C33.2003 26.3843 36.1687 24.3482 36.1687 18.5582C36.1687 12.7681 33.2003 10.7321 30.6171 10.7321H25.9948ZM22.0817 29.5147C22.9438 29.5147 23.647 30.2178 23.647 31.0799C23.647 31.942 22.9438 32.6451 22.0817 32.6451C21.2197 32.6451 20.5165 31.942 20.5165 31.0799C20.5165 30.2178 21.2197 29.5147 22.0817 29.5147Z" fill="white"/>
</svg>
