<svg width="33" height="37" viewBox="0 0 33 37" fill="none" xmlns="http://www.w3.org/2000/svg">
<path d="M16.2175 0.971588C14.7856 0.971588 13.4925 1.65189 11.7013 2.59369C9.3948 3.80659 6.2333 5.46809 0.882999 6.64269L0.315399 6.76689V7.34859C0.315399 29.3694 15.7579 36.7532 15.914 36.8248L16.2331 36.9716L16.5451 36.8121C16.7012 36.7326 32.1197 28.6357 32.1197 7.34859V6.76689L31.5521 6.64269C26.2018 5.46809 23.0403 3.80659 20.7338 2.59369C18.9426 1.65189 17.6495 0.971588 16.2175 0.971588ZM16.2175 8.85209C18.6029 8.85209 20.5545 10.8754 20.5545 13.333V14.6347H21.3493C22.1444 14.6347 22.723 15.2855 22.723 16.0083V23.3806C22.723 24.1034 22.0721 24.7542 21.3493 24.7542H11.0858C10.2907 24.7542 9.7121 24.1037 9.7121 23.3086V16.0083C9.7121 15.2855 10.2907 14.6347 11.0858 14.6347H11.8806V13.333C11.8806 10.8754 13.8322 8.85209 16.2175 8.85209ZM16.2175 10.2977C14.6273 10.2977 13.3263 11.6705 13.3263 13.333V14.6347H19.1088V13.333C19.1088 11.6705 17.8078 10.2977 16.2175 10.2977ZM16.2175 18.2488C15.6393 18.2488 15.2053 18.6828 15.2053 19.261C15.2053 19.5502 15.3499 19.767 15.5667 19.9839V20.9227C15.5667 21.2841 15.8561 21.5735 16.2175 21.5735C16.579 21.5735 16.8684 21.2841 16.8684 20.9227V19.9839C17.0852 19.767 17.2298 19.5502 17.2298 19.261C17.2298 18.6828 16.7958 18.2488 16.2175 18.2488Z" fill="white"/>
</svg>
