<svg width="100" height="100" viewBox="0 0 100 100" fill="none" xmlns="http://www.w3.org/2000/svg">
<path style="mix-blend-mode:luminosity" opacity="0.6" d="M35.205 0.000265694C15.551 0.104566 5.68395 33.9063 2.00095 51.2813C-1.68105 68.6565 2.167 104.3 30.731 99.572C35.348 98.808 36.426 98.651 40.232 96.741C47.006 93.34 55.024 90.948 62.269 90.225C65.24 89.929 68.996 88.948 70.985 88.591C86.927 85.724 103.197 70.2784 98.271 54.0944C94.572 41.9405 83.735 37.0479 72.881 37.7206C66.921 38.0899 60.577 34.5934 59.305 30.7307C55.162 18.1493 50.396 -0.0802343 35.205 0.000265694Z" fill="url(#paint0_linear)"/>
<defs>
<linearGradient id="paint0_linear" x1="178.176" y1="-0.706438" x2="-86.355" y2="93.914" gradientUnits="userSpaceOnUse">
<stop stop-color="#FFA052"/>
<stop offset="1" stop-color="white" stop-opacity="0"/>
</linearGradient>
</defs>
</svg>
