<svg width="33" height="36" viewBox="0 0 33 36" fill="none" xmlns="http://www.w3.org/2000/svg">
<path d="M12.0219 -9.15527e-05C8.8296 -9.15527e-05 6.4957 1.94331 5.6709 4.00311C2.4536 4.70821 0 8.33391 0 12.5216C0 13.773 0.2431 15.0267 0.7627 16.4347H4.8393C5.1633 15.5261 6.0245 14.8694 7.0435 14.8694C8.3379 14.8694 9.3913 15.9228 9.3913 17.2173C9.3913 18.5117 8.3379 19.5651 7.0435 19.5651C6.0245 19.5651 5.1633 18.9085 4.8393 17.9999H1.0149C0.4397 18.7848 0 19.7506 0 21.1303C0 23.3044 1.3605 25.1994 3.6073 26.2356C2.9836 27.6866 3.0104 29.116 3.699 30.3275C4.5083 31.7511 6.1325 32.6846 8.0233 32.845C8.9413 35.318 11.4076 35.9999 12.8045 35.9999C14.1036 35.9999 15.6522 35.3652 15.6522 32.3467V21.9129H10.9565V25.187C11.8651 25.511 12.5217 26.3722 12.5217 27.3912C12.5217 28.6856 11.4683 29.739 10.1739 29.739C8.8795 29.739 7.8261 28.6856 7.8261 27.3912C7.8261 26.3722 8.4827 25.511 9.3913 25.187V20.3477H15.6522V14.0868H10.9565V10.1738H9.2476C8.9236 11.0824 8.0624 11.739 7.0435 11.739C5.749 11.739 4.6957 10.6856 4.6957 9.39121C4.6957 8.09671 5.749 7.04341 7.0435 7.04341C8.0624 7.04341 8.9236 7.70001 9.2476 8.60861H12.5217V12.5216H15.6522V4.05971C15.6522 0.273409 14.2805 -9.15527e-05 12.0219 -9.15527e-05ZM20.8477 -9.15527e-05C18.589 -9.15527e-05 17.2174 0.273409 17.2174 4.05971V8.60861H23.6219C23.9952 7.56301 25.0784 6.85131 26.2953 7.08921C27.2149 7.26921 27.9628 8.02751 28.1326 8.94941C28.4058 10.4372 27.2653 11.739 25.8261 11.739C24.8071 11.739 23.9459 11.0824 23.6219 10.1738H17.2174V26.6086H20.4915C20.8648 25.563 21.948 24.8513 23.1649 25.0892C24.0845 25.2692 24.8324 26.0275 25.0022 26.9494C25.2753 28.4372 24.1349 29.739 22.6957 29.739C21.6767 29.739 20.8155 29.0824 20.4915 28.1738H17.2174V32.3482C17.2174 35.3667 18.7659 35.9999 20.065 35.9999C21.462 35.9999 23.9283 35.318 24.8448 32.845C26.7355 32.6846 28.3613 31.7511 29.1705 30.3275C29.5008 29.7468 29.6759 29.1155 29.7009 28.4566C29.7322 27.6411 29.3844 26.8834 29.0299 26.1485C28.9837 26.0507 28.9565 25.9426 28.9565 25.826V22.6955H21.913V18.6388C20.8675 18.2663 20.1558 17.1824 20.3937 15.9654C20.5737 15.0458 21.332 14.2979 22.2539 14.1281C23.7416 13.855 25.0435 14.9954 25.0435 16.4347C25.0435 17.4536 24.3869 18.3148 23.4783 18.6388V21.1303H30.5217V25.4836C32.0009 24.3989 32.8696 22.8567 32.8696 21.1303C32.8696 19.5534 32.2958 18.5164 31.6009 17.6728C32.4766 15.7335 32.8696 14.1275 32.8696 12.5216C32.8696 8.33391 30.416 4.70821 27.1987 4.00311C26.3731 1.94251 24.0399 -9.15527e-05 20.8477 -9.15527e-05ZM7.0435 8.60861C6.8359 8.60861 6.6369 8.69101 6.4901 8.83781C6.3433 8.98461 6.2609 9.18361 6.2609 9.39121C6.2609 9.59871 6.3433 9.79781 6.4901 9.94461C6.6369 10.0913 6.8359 10.1738 7.0435 10.1738C7.251 10.1738 7.4501 10.0913 7.5969 9.94461C7.7436 9.79781 7.8261 9.59871 7.8261 9.39121C7.8261 9.18361 7.7436 8.98461 7.5969 8.83781C7.4501 8.69101 7.251 8.60861 7.0435 8.60861ZM25.8261 8.60861C25.6185 8.60861 25.4195 8.69101 25.2727 8.83781C25.1259 8.98461 25.0435 9.18361 25.0435 9.39121C25.0435 9.59871 25.1259 9.79781 25.2727 9.94461C25.4195 10.0913 25.6185 10.1738 25.8261 10.1738C26.0336 10.1738 26.2327 10.0913 26.3795 9.94461C26.5262 9.79781 26.6087 9.59871 26.6087 9.39121C26.6087 9.18361 26.5262 8.98461 26.3795 8.83781C26.2327 8.69101 26.0336 8.60861 25.8261 8.60861ZM22.6957 15.6521C22.4881 15.6521 22.289 15.7345 22.1423 15.8813C21.9955 16.028 21.913 16.2271 21.913 16.4347C21.913 16.6422 21.9955 16.8413 22.1423 16.988C22.289 17.1348 22.4881 17.2173 22.6957 17.2173C22.9032 17.2173 23.1023 17.1348 23.249 16.988C23.3958 16.8413 23.4783 16.6422 23.4783 16.4347C23.4783 16.2271 23.3958 16.028 23.249 15.8813C23.1023 15.7345 22.9032 15.6521 22.6957 15.6521ZM7.0435 16.4347C6.8359 16.4347 6.6369 16.5171 6.4901 16.6639C6.3433 16.8106 6.2609 17.0097 6.2609 17.2173C6.2609 17.4248 6.3433 17.6239 6.4901 17.7707C6.6369 17.9174 6.8359 17.9999 7.0435 17.9999C7.251 17.9999 7.4501 17.9174 7.5969 17.7707C7.7436 17.6239 7.8261 17.4248 7.8261 17.2173C7.8261 17.0097 7.7436 16.8106 7.5969 16.6639C7.4501 16.5171 7.251 16.4347 7.0435 16.4347ZM10.1739 26.6086C9.9664 26.6086 9.7673 26.691 9.6205 26.8378C9.4738 26.9846 9.3913 27.1836 9.3913 27.3912C9.3913 27.5987 9.4738 27.7978 9.6205 27.9446C9.7673 28.0913 9.9664 28.1738 10.1739 28.1738C10.3815 28.1738 10.5805 28.0913 10.7273 27.9446C10.8741 27.7978 10.9565 27.5987 10.9565 27.3912C10.9565 27.1836 10.8741 26.9846 10.7273 26.8378C10.5805 26.691 10.3815 26.6086 10.1739 26.6086ZM22.6957 26.6086C22.4881 26.6086 22.289 26.691 22.1423 26.8378C21.9955 26.9846 21.913 27.1836 21.913 27.3912C21.913 27.5987 21.9955 27.7978 22.1423 27.9446C22.289 28.0913 22.4881 28.1738 22.6957 28.1738C22.9032 28.1738 23.1023 28.0913 23.249 27.9446C23.3958 27.7978 23.4783 27.5987 23.4783 27.3912C23.4783 27.1836 23.3958 26.9846 23.249 26.8378C23.1023 26.691 22.9032 26.6086 22.6957 26.6086Z" fill="white"/>
</svg>
