<svg width="86" height="82" viewBox="0 0 86 82" fill="none" xmlns="http://www.w3.org/2000/svg">
<path d="M81.189 24.3441H78.437V22.9126C78.437 21.168 77.018 19.7486 75.273 19.7486H65.3878L66.2641 17.1718H78.016C79.76 17.1718 81.18 15.7524 81.18 14.0077V3.88273C81.18 2.13803 79.76 0.718628 78.016 0.718628H7.98442C6.23972 0.718628 4.82032 2.13803 4.82032 3.88273V14.0077C4.82032 15.7524 6.23972 17.1718 7.98442 17.1718H27.7492C28.3316 17.1718 28.8039 16.6995 28.8039 16.1171C28.8039 15.5347 28.3316 15.0624 27.7492 15.0624H7.98442C7.40282 15.0624 6.92971 14.5892 6.92971 14.0077V3.88273C6.92971 3.30113 7.40282 2.82803 7.98442 2.82803H78.016C78.597 2.82803 79.07 3.30113 79.07 3.88273V14.0077C79.07 14.5892 78.597 15.0624 78.016 15.0624H65.5087C65.0571 15.0624 64.6555 15.3499 64.5103 15.7775L62.7357 20.9963C62.5708 21.481 62.1356 21.5188 62.0063 21.5188H62.0061C61.8768 21.5188 61.4416 21.481 61.2769 20.9963L59.5023 15.7775C59.3571 15.3499 58.9553 15.0624 58.5039 15.0624H34.2039C33.6215 15.0624 33.1492 15.5347 33.1492 16.1171C33.1492 16.6995 33.6215 17.1718 34.2039 17.1718H57.7483L58.6246 19.7486H48.2734C46.0742 19.7486 44.1344 20.8769 42.9998 22.5842C41.8652 20.8769 39.9254 19.7488 37.7263 19.7488H10.7266C8.98192 19.7488 7.56252 21.1682 7.56252 22.9128V24.3443H4.81102C2.48482 24.3443 0.592316 26.2368 0.592316 28.563V71.5825C0.592316 73.9087 2.48482 75.8012 4.81102 75.8012H30.3739V79.703C30.3739 80.487 30.8044 81.201 31.4972 81.568C32.1905 81.934 33.0231 81.888 33.6709 81.446L35.8853 79.938L38.0997 81.446C38.4572 81.69 38.8711 81.813 39.2869 81.813C39.6244 81.813 39.9629 81.732 40.2734 81.568C40.9664 81.201 41.3967 80.487 41.3967 79.703V75.8012H81.189C83.515 75.8012 85.408 73.9087 85.408 71.5825V28.5628C85.408 26.2368 83.515 24.3441 81.189 24.3441ZM9.67192 22.9128C9.67192 22.3313 10.145 21.8582 10.7266 21.8582H37.7263C40.0526 21.8582 41.9451 23.7507 41.9451 26.0769V66.0323C41.9451 66.6138 41.472 67.087 40.8904 67.087H10.7266C10.145 67.087 9.67192 66.6138 9.67192 66.0323V22.9128ZM4.81102 73.6918C3.64792 73.6918 2.70171 72.7456 2.70171 71.5825V28.5628C2.70171 27.3997 3.64792 26.4534 4.81102 26.4534H7.56252V66.0321C7.56252 67.7767 8.98192 69.1961 10.7266 69.1961H30.3739V73.6916H4.81102V73.6918ZM39.2871 79.703L36.4789 77.79C36.1207 77.546 35.6495 77.546 35.2913 77.79L32.4831 79.703V69.1963H39.2879L39.2926 79.706C39.2928 79.706 39.2909 79.705 39.2871 79.703ZM83.298 71.5825C83.298 72.7456 82.352 73.6918 81.189 73.6918H41.3965V69.152C42.0071 69.0531 42.5587 68.7802 43 68.384C43.5605 68.8873 44.2985 69.1965 45.1096 69.1965H75.273C77.018 69.1965 78.437 67.7772 78.437 66.0325V31.8541C78.437 31.2717 77.965 30.7994 77.383 30.7994C76.8 30.7994 76.328 31.2717 76.328 31.8541V66.0321C76.328 66.6136 75.855 67.0868 75.273 67.0868H45.1094C44.5278 67.0868 44.0547 66.6136 44.0547 66.0321V26.0767C44.0547 23.7505 45.9472 21.8579 48.2734 21.8579H59.3498C59.797 22.9392 60.8189 23.6279 62.0061 23.6281H62.0063C63.1935 23.6281 64.2155 22.9392 64.6626 21.8579H75.273C75.855 21.8579 76.328 22.3311 76.328 22.9126V25.3994C76.328 25.905 76.687 26.3391 77.183 26.4349C77.259 26.4494 77.335 26.4551 77.41 26.4536H81.189C82.352 26.4536 83.298 27.3999 83.298 28.563V71.5825Z" fill="#590BB2"/>
</svg>
