<svg width="40" height="32" viewBox="0 0 40 32" fill="none" xmlns="http://www.w3.org/2000/svg">
<path d="M35.8365 7.5055C33.7882 2.9059 31.2761 0.4758 28.5699 0.4758C25.7151 0.4758 24.0532 1.4608 22.7174 2.2517C21.7151 2.8448 20.9916 3.2731 19.9073 3.2731C18.8284 3.2731 18.105 2.8448 17.1036 2.2517C15.7678 1.4608 14.1058 0.4758 11.2511 0.4758C8.54302 0.4758 6.03002 2.9059 3.98072 7.5055C1.03582 14.118 -1.00978 26.2048 2.48912 30.0928C3.57982 31.3056 4.78622 31.5142 5.59902 31.4705C8.84742 31.3074 11.939 27.0923 14.4238 23.7045C15.0425 22.8617 15.7906 21.8411 16.1815 21.4338H23.6395C24.0304 21.8411 24.7785 22.8617 25.3971 23.7045C27.8819 27.0923 30.9727 31.3074 34.2219 31.4705C34.283 31.4732 34.3459 31.4751 34.4105 31.4751C35.2169 31.4751 36.3222 31.2145 37.3318 30.0928C40.8289 26.2057 38.7824 14.1189 35.8365 7.5055ZM14.8958 14.1435H13.529V15.5103C13.529 16.2656 12.9167 16.877 12.1622 16.877C11.4078 16.877 10.7955 16.2656 10.7955 15.5103V14.1435H9.42872C8.67422 14.1435 8.06192 13.5321 8.06192 12.7767C8.06192 12.0213 8.67422 11.4099 9.42872 11.4099H10.7955V10.0432C10.7955 9.2878 11.4078 8.6764 12.1622 8.6764C12.9167 8.6764 13.529 9.2878 13.529 10.0432V11.4099H14.8958C15.6502 11.4099 16.2626 12.0213 16.2626 12.7767C16.2626 13.5321 15.6502 14.1435 14.8958 14.1435ZM24.0076 14.1435C23.2531 14.1435 22.6408 13.5312 22.6408 12.7767C22.6408 12.0223 23.2531 11.4099 24.0076 11.4099C24.7621 11.4099 25.3744 12.0223 25.3744 12.7767C25.3744 13.5312 24.7621 14.1435 24.0076 14.1435ZM27.6523 17.7882C26.8979 17.7882 26.2855 17.1759 26.2855 16.4214C26.2855 15.667 26.8979 15.0547 27.6523 15.0547C28.4068 15.0547 29.0191 15.667 29.0191 16.4214C29.0191 17.1759 28.4068 17.7882 27.6523 17.7882ZM27.6523 10.4988C26.8979 10.4988 26.2855 9.8864 26.2855 9.132C26.2855 8.3775 26.8979 7.7652 27.6523 7.7652C28.4068 7.7652 29.0191 8.3775 29.0191 9.132C29.0191 9.8864 28.4068 10.4988 27.6523 10.4988ZM31.297 14.1435C30.5426 14.1435 29.9303 13.5312 29.9303 12.7767C29.9303 12.0223 30.5426 11.4099 31.297 11.4099C32.0515 11.4099 32.6638 12.0223 32.6638 12.7767C32.6638 13.5312 32.0515 14.1435 31.297 14.1435Z" fill="white"/>
</svg>
