<svg width="33" height="37" viewBox="0 0 33 37" fill="none" xmlns="http://www.w3.org/2000/svg">
<path d="M14.938 0.370789C6.98559 0.370789 0.537994 6.81839 0.537994 14.7708C0.537994 23.778 5.93799 22.7434 5.93799 31.4032V36.3708H22.138V30.9708H25.738C27.727 30.9708 29.338 29.3598 29.338 27.3708V22.0094L31.9044 20.9266C32.8422 20.5324 33.2005 19.3876 32.6533 18.529L29.2466 13.1817C28.4564 5.97629 22.354 0.370789 14.938 0.370789ZM13.8517 7.57079H16.0244C16.2584 7.57079 16.4546 7.74989 16.4744 7.98209L16.615 9.66259C17.3332 9.89839 17.9802 10.2697 18.531 10.7629L20.0498 10.0493C20.2622 9.95029 20.5128 10.027 20.6298 10.2286L21.7162 12.1094C21.8332 12.3128 21.7752 12.5704 21.5826 12.7036L20.2185 13.6528C20.2941 14.0164 20.338 14.3874 20.338 14.7708C20.338 15.1542 20.2941 15.5269 20.2185 15.8887L21.5826 16.8344C21.7752 16.9676 21.8332 17.227 21.7162 17.4286L20.6298 19.3094C20.5128 19.5128 20.2604 19.593 20.0498 19.4922L18.531 18.7751C17.982 19.2683 17.3332 19.6432 16.615 19.879L16.4744 21.5559C16.4546 21.7899 16.2584 21.9708 16.0244 21.9708H13.8517C13.6177 21.9708 13.4215 21.7916 13.4017 21.5594L13.2611 19.879C12.5429 19.6432 11.8959 19.2718 11.3451 18.7786L9.82629 19.4922C9.61389 19.5912 9.36319 19.5145 9.24619 19.3129L8.15989 17.4321C8.04289 17.2287 8.1009 16.9711 8.2935 16.8379L9.65759 15.8887C9.582 15.5251 9.53799 15.1542 9.53799 14.7708C9.53799 14.3874 9.582 14.0146 9.65759 13.6528L8.2935 12.7071C8.1009 12.5739 8.04289 12.3145 8.15989 12.1129L9.24619 10.2321C9.36319 10.0287 9.61569 9.94849 9.82629 10.0493L11.3451 10.7665C11.8977 10.2715 12.5464 9.89839 13.2646 9.66259L13.4052 7.98209C13.4232 7.74989 13.6177 7.57079 13.8517 7.57079ZM14.938 12.0708C14.222 12.0708 13.5352 12.3552 13.0289 12.8616C12.5225 13.3679 12.238 14.0547 12.238 14.7708C12.238 15.4868 12.5225 16.1736 13.0289 16.6799C13.5352 17.1863 14.222 17.4708 14.938 17.4708C15.6541 17.4708 16.3409 17.1863 16.8472 16.6799C17.3536 16.1736 17.638 15.4868 17.638 14.7708C17.638 14.0547 17.3536 13.3679 16.8472 12.8616C16.3409 12.3552 15.6541 12.0708 14.938 12.0708Z" fill="white"/>
</svg>
