<svg width="108" height="106" viewBox="0 0 108 106" fill="none" xmlns="http://www.w3.org/2000/svg">
<path d="M71.4909 13.8042C71.2022 13.8042 70.9142 13.8068 70.6269 13.812C63.4694 13.942 56.572 11.3399 51.0083 6.83528C46.0747 2.84098 39.7788 0.462877 32.9259 0.507577C17.288 0.609677 4.40001 13.8123 4.65881 29.4482C4.72841 33.6585 5.71261 37.6461 7.42121 41.2213C10.3324 47.3129 9.70461 54.5599 5.65951 59.9654C3.98881 62.1979 2.62151 64.7146 1.63881 67.4758C-3.59799 82.1902 4.13801 98.546 18.8409 103.814C33.8137 109.179 50.2333 101.249 55.3732 86.253C55.754 85.142 56.0619 84.024 56.2999 82.9034C57.8106 75.7886 64.0172 70.6951 71.2906 70.7255C71.3574 70.7257 71.4243 70.7259 71.4911 70.7259C91.655 70.7259 108 57.9836 108 42.2652C108 26.5468 91.654 13.8042 71.4909 13.8042Z" fill="url(#paint0_linear)"/>
<defs>
<linearGradient id="paint0_linear" x1="63.6837" y1="-12.5961" x2="40.9001" y2="136.13" gradientUnits="userSpaceOnUse">
<stop stop-color="#EA72BA" stop-opacity="0.8"/>
<stop offset="1" stop-color="#50385F"/>
</linearGradient>
</defs>
</svg>
