<svg width="92" height="77" viewBox="0 0 92 77" fill="none" xmlns="http://www.w3.org/2000/svg">
<g style="mix-blend-mode:luminosity" opacity="0.6">
<path d="M88.186 66.1663H85.266V22.9925C85.266 20.6005 83.32 18.6548 80.929 18.6548H64.423V17.3151L71.401 14.4681C72.139 14.1669 72.616 13.4571 72.616 12.6599C72.616 11.8624 72.139 11.1526 71.401 10.8513L46.738 0.788622C46.262 0.594222 45.738 0.594222 45.262 0.788622L20.599 10.8513C19.861 11.1524 19.384 11.8624 19.384 12.6599C19.384 13.4571 19.861 14.1669 20.599 14.4681L27.577 17.3151V33.1196C27.577 33.9171 28.054 34.6269 28.793 34.928L45.262 41.6477C45.5 41.745 45.75 41.7935 46 41.7935C46.25 41.7935 46.5 41.7448 46.738 41.6477L56.937 37.4862V41.0616C54.791 41.513 53.174 43.421 53.174 45.6999C53.174 46.8659 53.598 47.9341 54.299 48.7606C53.803 49.4733 53.507 50.3358 53.507 51.2681V56.9378C53.507 58.0147 54.384 58.8909 55.461 58.8909H60.367C61.444 58.8909 62.32 58.0147 62.32 56.9378V51.2681C62.32 50.3354 62.028 49.4702 61.532 48.7575C62.231 47.9315 62.654 46.8643 62.654 45.6999C62.654 43.421 61.037 41.513 58.89 41.0616V36.6894L63.208 34.928C63.946 34.6269 64.423 33.9169 64.423 33.1196V20.6079H80.929C82.243 20.6079 83.313 21.6776 83.313 22.9925V67.1429C83.313 67.6821 83.75 68.1194 84.29 68.1194H88.186C88.724 68.1194 89.162 68.5575 89.162 69.096V74.0198C89.162 74.5583 88.724 74.9964 88.186 74.9964H3.81403C3.27603 74.9964 2.83801 74.5583 2.83801 74.0198V69.096C2.83801 68.5575 3.27603 68.1194 3.81403 68.1194H30.378L32.893 71.0243C33.078 71.2386 33.347 71.3618 33.631 71.3618H58.369C58.653 71.3618 58.922 71.2388 59.107 71.0243L61.622 68.1194H78.313C78.853 68.1194 79.29 67.6821 79.29 67.1429C79.29 66.6036 78.853 66.1663 78.313 66.1663H61.622C61.055 66.1663 60.516 66.4124 60.145 66.8411L57.923 69.4085H34.077L31.854 66.8411C31.483 66.4122 30.945 66.1663 30.378 66.1663H8.68701V22.9925C8.68701 21.6776 9.75598 20.6079 11.071 20.6079H22.576C23.115 20.6079 23.553 20.1706 23.553 19.6313C23.553 19.0921 23.115 18.6548 22.576 18.6548H11.071C8.67998 18.6548 6.73401 20.6007 6.73401 22.9925V66.1663H3.81403C2.19903 66.1663 0.88501 67.4806 0.88501 69.096V74.0198C0.88501 75.6352 2.19903 76.95 3.81403 76.95H88.186C89.801 76.95 91.115 75.6352 91.115 74.0198V69.096C91.115 67.4806 89.801 66.1663 88.186 66.1663ZM59.216 56.9378V54.0081C59.216 53.4688 58.779 53.0315 58.24 53.0315C57.7 53.0315 57.263 53.4688 57.263 54.0081V56.9378H55.461V51.2681C55.461 50.7874 55.602 50.3409 55.843 49.9624C56.469 50.2679 57.172 50.4399 57.914 50.4399C58.656 50.4399 59.359 50.2681 59.985 49.9628C60.225 50.3411 60.368 50.7874 60.368 51.2683L60.369 56.9378H59.216ZM60.701 45.6999C60.701 47.2366 59.451 48.4868 57.914 48.4868C56.377 48.4868 55.127 47.2366 55.127 45.6999C55.127 44.1632 56.377 42.913 57.914 42.913C59.451 42.913 60.701 44.1632 60.701 45.6999ZM46 2.59682L70.663 12.6595L57.513 18.0247L43.755 11.9651C43.261 11.7476 42.685 11.9714 42.468 12.4653C42.25 12.9589 42.474 13.5353 42.968 13.7526L54.998 19.0513L46 22.7224L21.337 12.6595L46 2.59682ZM46 39.8393L29.53 33.1194V18.1118L45.262 24.5306C45.5 24.6278 45.75 24.6763 46 24.6763C46.25 24.6763 46.5 24.6276 46.738 24.5306L56.937 20.3692V35.3769L46 39.8393ZM58.891 34.58V19.5724L62.47 18.112V33.1196L58.891 34.58Z" fill="#590BB2"/>
</g>
</svg>
